<?xml version="1.0" standalone="no"?>
<!DOCTYPE svg PUBLIC "-//W3C//DTD SVG 20010904//EN"
 "http://www.w3.org/TR/2001/REC-SVG-20010904/DTD/svg10.dtd">
<svg version="1.0" xmlns="http://www.w3.org/2000/svg"
 width="528.000000pt" height="528.000000pt" viewBox="0 0 528.000000 528.000000"
 preserveAspectRatio="xMidYMid meet">
<metadata>
Created by potrace 1.14, written by Peter Selinger 2001-2017
</metadata>
<g transform="translate(0.000000,528.000000) scale(0.100000,-0.100000)"
fill="#000000" stroke="none">
<path d="M2358 5155 c-411 -52 -767 -184 -1108 -411 -934 -622 -1342 -1795
-994 -2859 307 -937 1128 -1607 2110 -1721 168 -20 514 -14 669 10 478 76 903
274 1276 594 397 340 689 831 803 1347 50 226 70 571 47 797 -60 569 -312
1105 -711 1508 -386 391 -868 636 -1426 725 -138 23 -525 28 -666 10z m523
-1321 c435 -82 800 -414 923 -837 37 -126 46 -194 46 -338 0 -207 -40 -374
-133 -554 -77 -148 -209 -302 -352 -411 -86 -65 -283 -159 -395 -189 -382
-101 -762 -20 -1075 228 -219 173 -375 440 -426 727 -17 96 -17 304 0 400 30
169 89 315 189 465 191 287 509 481 860 524 95 12 258 5 363 -15z"/>
</g>
</svg>
