<svg width="17" height="20" viewBox="0 0 17 20" xmlns="http://www.w3.org/2000/svg">
<path d="M13.5063 16.219V1.00001C13.5063 0.437506 13.0688 0 12.5063 0H1.91237C1.38111 0 0.912354 0.437506 0.912354 1.00001V16.219C0.912354 16.7815 1.34986 17.219 1.91237 17.219H12.5063C13.0688 17.219 13.5063 16.7815 13.5063 16.219ZM9.81873 10.1876C9.38122 10.6251 8.31871 10.5939 7.9437 10.5314C8.03745 10.9377 8.38121 11.5939 8.78746 12.2502H5.66242C6.06868 11.5939 6.38118 10.9689 6.50618 10.5314C6.13118 10.5939 5.06866 10.6251 4.63116 10.1876C3.9124 9.46888 3.9124 8.28137 4.63116 7.56261L7.25619 4.93757L9.88123 7.56261C10.5375 8.31262 10.5375 9.46888 9.81873 10.1876Z" fill="white"/>
<path d="M15.2878 2.78137H14.1315V16.2503C14.1315 17.1253 13.4127 17.8441 12.5377 17.8441H3.69385V19.0003C3.69385 19.5629 4.13135 20.0004 4.69386 20.0004H15.2878C15.8503 20.0004 16.2878 19.5629 16.2878 19.0003V3.78139C16.2878 3.21888 15.819 2.78137 15.2878 2.78137Z" fill="white"/>
</svg>
