<svg version="1.1" xmlns="http://www.w3.org/2000/svg" xmlns:xlink="http://www.w3.org/1999/xlink" x="0px" y="0px"
	 viewBox="0 0 13.6 13.6" style="enable-background:new 0 0 13.6 13.6;" xml:space="preserve">
<path style="fill:#FF5F5F" d="M0.4,0.4L0.4,0.4C1-0.1,2-0.1,2.6,0.4L13.2,11c0.6,0.6,0.6,1.5,0,2.1l0,0c-0.6,0.6-1.5,0.6-2.1,0L0.4,2.6
	C-0.1,2-0.1,1,0.4,0.4z"/>
<path style="fill:#FF5F5F" d="M13.2,0.4L13.2,0.4c0.6,0.6,0.6,1.5,0,2.1L2.6,13.2c-0.6,0.6-1.5,0.6-2.1,0l0,0c-0.6-0.6-0.6-1.5,0-2.1L11,0.4
	C11.6-0.1,12.6-0.1,13.2,0.4z"/>
</svg>
