<svg version="1.1" xmlns="http://www.w3.org/2000/svg" xmlns:xlink="http://www.w3.org/1999/xlink" x="0px" y="0px"
	 viewBox="0 0 199.4 35.3" style="enable-background:new 0 0 199.4 35.3;" xml:space="preserve">
<style type="text/css">
	.st0{fill:#FFFFFF;}
	.st1{fill:#0194FF;}
	.st2{fill:#FFE600;}
	.st3{fill-rule:evenodd;clip-rule:evenodd;fill:#00317B;}
</style>
<path class="st0" d="M133.6,26.2l-6.4-7.4v7.4h-4.5V10.9h4.3l6.4,7.5v-7.5h4.5v15.3H133.6z"/>
<path class="st0" d="M141.9,10.9h4.9v11.4h7.9v3.9h-12.8V10.9z"/>
<path class="st0" d="M157.6,26.2V10.9h4.9v15.3H157.6z"/>
<path class="st0" d="M177.7,26.2l-6.4-7.4v7.4h-4.5V10.9h4.3l6.4,7.5v-7.5h4.5v15.3H177.7z"/>
<path class="st0" d="M186,10.9h13.3v3.7h-8.3v2.1h7.1v3.5h-7.1v2.3h8.5v3.7H186V10.9z"/>
<path class="st1" d="M118.4,17.7c0,9.8-7.9,17.7-17.7,17.7c-9.8,0-17.7-7.9-17.7-17.7C82.9,7.9,90.9,0,100.7,0
	C110.4,0,118.4,7.9,118.4,17.7z"/>
<path class="st2" d="M110.8,17.7c0,5.6-4.5,10.1-10.1,10.1c-5.6,0-10.1-4.5-10.1-10.1s4.5-10.1,10.1-10.1
	C106.2,7.6,110.8,12.1,110.8,17.7z"/>
<path class="st3" d="M100.7,26.1c4.7,0,8.4-3.8,8.4-8.4c0-4.6-3.8-8.4-8.4-8.4c-4.7,0-8.4,3.8-8.4,8.4C92.2,22.3,96,26.1,100.7,26.1
	z M100.7,27.7c5.6,0,10.1-4.5,10.1-10.1s-4.5-10.1-10.1-10.1c-5.6,0-10.1,4.5-10.1,10.1S95.1,27.7,100.7,27.7z"/>
<path class="st0" d="M8,10.6c2.3,0,4.1,0.6,5.4,1.7c1.3,1.1,2,2.7,2,4.8h-4.7c0-0.9-0.2-1.6-0.7-2.1c-0.5-0.5-1.1-0.8-2-0.8
	c-1,0-1.7,0.3-2.2,0.9C5.3,15.8,5,16.7,5,17.8v1.4c0,1.1,0.2,2,0.7,2.6c0.5,0.6,1.2,0.9,2.2,0.9c1,0,1.7-0.2,2.2-0.7
	c0.5-0.5,0.7-1.2,0.7-2.1h4.5c0,2.1-0.6,3.7-1.9,4.8c-1.3,1.1-3.1,1.7-5.4,1.7c-2.6,0-4.6-0.7-6-2c-1.3-1.3-2-3.3-2-5.9
	s0.7-4.6,2-5.9C3.4,11.3,5.3,10.6,8,10.6z"/>
<path class="st0" d="M29,26.2L28.3,24h-5.4l-0.6,2.2h-5l5.6-15.3h5.7l5.6,15.3H29z M24,20.6h3.3l-1.6-5.4h-0.1L24,20.6z"/>
<path class="st0" d="M43.1,10.6c2,0,3.6,0.4,4.8,1.2c1.3,0.8,1.9,2,1.9,3.5v0.3h-4.6v-0.1c0-0.4-0.2-0.8-0.5-1.1
	c-0.3-0.3-0.8-0.4-1.5-0.4c-0.7,0-1.2,0.1-1.5,0.3c-0.3,0.2-0.5,0.4-0.5,0.7c0,0.4,0.2,0.7,0.7,0.9c0.5,0.2,1.2,0.4,2.3,0.6
	c1.2,0.3,2.2,0.5,3,0.8c0.8,0.3,1.5,0.7,2.1,1.3c0.6,0.6,0.9,1.5,0.9,2.5c0,1.8-0.6,3.1-1.9,4c-1.2,0.9-2.9,1.3-4.9,1.3
	c-2.4,0-4.3-0.4-5.6-1.2c-1.3-0.8-2-2.2-2-4.2h4.7c0,0.8,0.2,1.3,0.6,1.6c0.4,0.3,1,0.4,1.9,0.4c0.6,0,1.1-0.1,1.5-0.2
	c0.4-0.1,0.6-0.4,0.6-0.8c0-0.4-0.2-0.6-0.7-0.8c-0.4-0.2-1.2-0.4-2.2-0.6c-1.2-0.3-2.3-0.5-3.1-0.8c-0.8-0.3-1.5-0.8-2.1-1.4
	c-0.6-0.7-0.9-1.6-0.9-2.7c0-1.7,0.6-2.9,1.9-3.7C39.5,11,41.1,10.6,43.1,10.6z"/>
<path class="st0" d="M53.7,26.2V10.9h4.9v15.3H53.7z"/>
<path class="st0" d="M73.8,26.2l-6.4-7.4v7.4h-4.5V10.9h4.3l6.4,7.5v-7.5h4.5v15.3H73.8z"/>
</svg>
