<svg width="24" height="20" viewBox="0 0 24 20" fill="none" xmlns="http://www.w3.org/2000/svg">
<path d="M23.9999 12.1794C23.9999 9.45397 19.2777 7.21429 13.2333 6.97144V7.05238L13.3142 7.59207C16.4984 7.78096 19.2237 8.5635 20.7079 9.66985C21.4904 10.2635 21.9491 10.9111 21.9491 11.6397C21.9491 11.9365 21.8682 12.2064 21.7333 12.4762C21.5174 12.881 21.1666 13.2587 20.6809 13.6095C18.9809 14.8508 15.7158 15.6873 11.965 15.6873C8.21423 15.6873 4.94915 14.8508 3.24915 13.6095C2.76344 13.2587 2.41265 12.881 2.19677 12.4762C2.06185 12.2064 1.9809 11.9095 1.9809 11.6397C1.9809 11.073 2.27773 10.5333 2.79043 10.0206C4.13963 8.7254 7.0809 7.78096 10.6158 7.59207L10.6968 6.99842C4.8682 7.32223 0.334872 9.50794 0.334872 12.1794C0.334872 12.3143 0.361857 12.4492 0.361857 12.5841C0.415826 12.9349 0.550746 13.2587 0.766619 13.5825C0.766619 13.5825 0.766621 13.6095 0.793605 13.6095C2.19678 15.7952 6.75709 17.3873 12.1539 17.3873C16.2825 17.3873 19.8983 16.4698 22.0031 15.0397C20.0063 16.8206 16.0126 18.0079 11.3984 18.0079C6.24439 18.0079 1.87297 16.4968 0.199951 14.3921C0.820586 17.4143 5.8936 19.7619 12.046 19.7619C18.6301 19.7619 23.973 17.0905 23.973 13.7714C23.973 13.7175 23.973 13.6635 23.973 13.5825V12.4492H23.946C23.9999 12.3952 23.9999 12.2873 23.9999 12.1794Z"/>
<path d="M20.0871 11.046C19.6284 11.046 19.2236 11.4238 19.2236 11.9095C19.2236 12.1524 19.3046 12.3413 19.4665 12.5032C19.6284 12.6651 19.8443 12.773 20.0871 12.773C20.33 12.773 20.5459 12.6651 20.7078 12.5032C20.8697 12.3413 20.9506 12.1524 20.9506 11.9095C20.9506 11.4238 20.5728 11.046 20.0871 11.046Z"/>
<path d="M13.4491 8.32068L13.8538 11.127C13.8538 11.7207 12.3158 12.0175 11.9919 12.0175C11.6681 12.0175 10.13 11.7207 10.13 11.154L10.5348 8.32068C7.64749 8.59052 5.48877 9.66988 5.48877 10.9381C5.48877 11.5048 5.92051 12.0445 6.67607 12.4762C7.86337 13.1508 9.80623 13.6096 11.9919 13.6096C14.1777 13.6096 16.1205 13.1508 17.3078 12.4762C18.0634 12.0445 18.4951 11.5048 18.4951 10.9381C18.4951 9.66988 16.3364 8.59052 13.4491 8.32068Z"/>
<path d="M7.99841 6.53968C8.26825 6.53968 8.48412 6.43175 8.67301 6.26984H10.8317H10.9667H11.1016L10.9936 6.99841L10.9127 7.59206L10.8857 7.83492L10.8048 8.32063L10.4 11.2079C10.4 11.4238 11.5063 11.7746 11.9921 11.7746C12.4778 11.7746 13.5841 11.4238 13.5841 11.181L13.1794 8.32063L13.0984 7.83492L13.0714 7.59206L12.9905 7.05238V6.99841L12.8825 6.29683H13.0175H13.1524H15.5809C15.7698 6.45873 15.9857 6.56667 16.2555 6.56667C16.7952 6.56667 17.254 6.10793 17.254 5.56825C17.254 5.02857 16.7952 4.56985 16.2555 4.56985C15.9857 4.56985 15.7698 4.67778 15.5809 4.83969H12.9365H12.8016H12.6667L12.6127 4.4619C12.6667 4.43492 12.6936 4.43492 12.7476 4.40794C12.8016 4.38095 12.8286 4.38095 12.8825 4.35397C13.5032 4.03016 13.9079 3.40953 13.9079 2.65397C13.9079 1.60159 13.0444 0.738098 11.9921 0.738098C10.9397 0.738098 10.0762 1.60159 10.0762 2.65397C10.0762 3.38254 10.5079 4.03016 11.1016 4.35397C11.1555 4.38095 11.1825 4.40794 11.2365 4.40794C11.2905 4.43492 11.3175 4.43492 11.3714 4.4619L11.3175 4.83969H11.1825H11.0476H8.67301C8.48412 4.67778 8.26825 4.56985 7.99841 4.56985C7.45872 4.56985 7 5.02857 7 5.56825C7 6.08095 7.45872 6.53968 7.99841 6.53968ZM13.2333 2.46508C13.2333 2.46508 13.1254 2.22222 12.6667 1.81746C12.4238 1.57461 11.9921 1.33175 11.9921 1.33175C13.2063 1.38572 13.2333 2.46508 13.2333 2.46508Z"/>
</svg>
