<svg width="21" height="22" viewBox="0 0 21 22" xmlns="http://www.w3.org/2000/svg">
<path d="M21 11.6419C20.949 12.5201 20.7975 13.3887 20.5488 14.2289C16.7068 13.9876 13.1041 12.1897 10.5 9.2139C7.89642 12.1894 4.29445 13.9875 0.45308 14.2293C0.204743 13.389 0.0526444 12.5206 0 11.6424C1.2977 11.5944 2.58012 11.3322 3.80019 10.8655C2.7324 9.93413 1.50431 9.22657 0.182536 8.78119C0.345738 7.92575 0.605383 7.09377 0.955985 6.3028C2.92373 6.96922 4.71719 8.10636 6.19504 9.6246C7.08044 9.03322 7.89119 8.32683 8.60805 7.5222C6.21007 7.08295 4.01962 5.81789 2.38228 3.9266C2.90988 3.2523 3.51219 2.64648 4.17644 2.12196C5.12993 3.23886 6.3362 4.08537 7.68373 4.58324C7.18937 3.32585 6.85465 2.00567 6.68817 0.656634C7.4696 0.338531 8.28433 0.11925 9.11515 0.00342251C9.28139 1.66323 9.75163 3.27364 10.5 4.74605C11.2489 3.27264 11.7194 1.66102 11.8853 0C12.7164 0.114934 13.5313 0.334579 14.3123 0.654189C14.1455 2.00364 13.8108 3.32427 13.3167 4.58226C14.6631 4.08421 15.8685 3.23867 16.8222 2.12343C17.4869 2.64671 18.0901 3.25102 18.6191 3.92367C16.9813 5.81564 14.7902 7.08121 12.3915 7.52073C13.1088 8.32524 13.9198 9.03161 14.8054 9.62313C16.2833 8.10489 18.0767 6.96776 20.0445 6.30134C20.3931 7.09303 20.6517 7.92504 20.8151 8.78022C19.4946 9.22584 18.2676 9.93322 17.2007 10.864C18.4205 11.3309 19.7026 11.5934 21 11.6419ZM11.7405 21.9222V18.2151L15.3074 13.3326C14.5389 12.9775 13.7994 12.5568 13.0965 12.0746L10.4991 15.6306L7.90166 12.0746C7.19878 12.5569 6.45931 12.9777 5.69074 13.3326L9.25717 18.2151V21.9241C10.082 22.0259 10.9154 22.0253 11.74 21.9222H11.7405Z" fill="#FA6432"/>
</svg>
