<svg width="22" height="23" viewBox="0 0 22 23" fill="none" xmlns="http://www.w3.org/2000/svg">
<path fill-rule="evenodd" clip-rule="evenodd" d="M2.63911 17.7084C3.47057 18.8265 4.51906 19.7694 5.71987 20.477L7.35796 17.697C6.52847 17.2082 5.80326 16.5561 5.2284 15.783L2.63911 17.7084ZM9.65608 21.8272C10.0996 21.8844 10.5482 21.9133 11 21.9133C11.9494 21.9133 12.8835 21.7858 13.7833 21.5367L12.9225 18.427C12.3025 18.5986 11.6579 18.6866 11 18.6866C10.6864 18.6866 10.3757 18.6666 10.0691 18.627L9.65608 21.8272ZM17.485 19.6479C18.569 18.7842 19.4727 17.7118 20.1387 16.4956C20.1453 16.4834 20.1453 16.4834 20.1507 16.4736L17.3169 14.9306C17.3134 14.937 17.3134 14.937 17.3084 14.9461C16.8487 15.7855 16.2238 16.5271 15.4742 17.1244L17.485 19.6479ZM21.3651 12.508C21.397 12.1763 21.4131 11.8421 21.4133 11.5061C21.4133 11.1875 21.3995 10.8758 21.3719 10.5654C21.3055 9.82049 21.1599 9.08997 20.9386 8.38367L17.8595 9.3483C18.0118 9.83456 18.1121 10.3377 18.1579 10.8518C18.1771 11.0668 18.1867 11.2829 18.1867 11.5052C18.1865 11.7375 18.1753 11.9692 18.1532 12.1989L21.3651 12.508ZM18.9331 4.75403C18.03 3.69285 16.9222 2.82063 15.6766 2.19367L14.2259 5.07581C15.0855 5.50852 15.8514 6.11149 16.4758 6.84527L18.9331 4.75403ZM11.6747 1.10817C11.4521 1.0939 11.2286 1.0867 11.0043 1.08661C10.3221 1.08661 9.65109 1.1516 8.99383 1.27999C8.50863 1.37477 8.03233 1.50384 7.56789 1.66591L8.63105 4.7124C8.95064 4.60087 9.2784 4.51206 9.61245 4.4468C10.066 4.3582 10.5299 4.31327 11.0036 4.31328C11.1588 4.31334 11.314 4.31834 11.4683 4.32823L11.6747 1.10817ZM3.99866 3.7915C3.30425 4.42253 2.69719 5.14467 2.19532 5.93768C1.95469 6.31791 1.73884 6.71349 1.54931 7.12205L4.47636 8.47989C4.60699 8.19831 4.75583 7.92553 4.92186 7.66319C5.2686 7.11529 5.6884 6.61591 6.16867 6.17948L3.99866 3.7915ZM0.592133 11.1599C0.588495 11.273 0.586672 11.3863 0.58667 11.4997C0.58667 12.7949 0.823881 14.0596 1.28081 15.2448L4.29149 14.0841C3.97677 13.2678 3.81334 12.3964 3.81334 11.4998C3.81334 11.4209 3.8146 11.3422 3.81713 11.2637L0.592133 11.1599Z" fill="white"/>
<path fill-rule="evenodd" clip-rule="evenodd" d="M10.9999 17.66C11.3104 17.66 11.618 17.637 11.9212 17.5915L11.8341 17.0114C11.5598 17.0525 11.2812 17.0733 10.9999 17.0733V17.66ZM12.8273 17.3843C13.1224 17.2928 13.4096 17.1792 13.6868 17.0446L13.4306 16.5168C13.18 16.6385 12.9203 16.7413 12.6535 16.824L12.8273 17.3843ZM14.4899 16.5766C14.7439 16.4017 14.9845 16.208 15.2096 15.9972L14.8086 15.5689C14.6048 15.7598 14.387 15.9352 14.1571 16.0935L14.4899 16.5766ZM15.8321 15.3207C16.0236 15.079 16.1967 14.8232 16.3498 14.5555L15.8407 14.2641C15.7021 14.5063 15.5454 14.7378 15.3722 14.9566L15.8321 15.3207ZM16.7524 13.7076C16.8628 13.4201 16.9515 13.1242 17.0176 12.822L16.4445 12.6967C16.3847 12.9699 16.3046 13.2374 16.2048 13.4973L16.7524 13.7076ZM17.1483 11.8815C17.1559 11.7571 17.1598 11.6322 17.1599 11.5068C17.1599 11.3172 17.1519 11.1345 17.1359 10.9523L16.5515 11.0038C16.566 11.1688 16.5732 11.3344 16.5732 11.5064C16.5731 11.6198 16.5696 11.733 16.5627 11.8457L17.1483 11.8815ZM16.9853 10.038C16.9121 9.73751 16.8165 9.44384 16.6994 9.159L16.1568 9.3821C16.2627 9.63962 16.3491 9.90511 16.4153 10.1767L16.9853 10.038ZM16.2819 8.32872C16.1229 8.06449 15.9443 7.81253 15.7477 7.57497L15.2957 7.94901C15.4737 8.16403 15.6353 8.39206 15.7792 8.63116L16.2819 8.32872ZM15.0875 6.89153C14.8568 6.68682 14.6112 6.49958 14.3526 6.33153L14.0329 6.82343C14.2669 6.97551 14.4893 7.14499 14.698 7.33029L15.0875 6.89153ZM13.5572 5.89435C13.2769 5.7663 12.9871 5.65942 12.6898 5.57478L12.5292 6.13903C12.7979 6.21554 13.06 6.31217 13.3134 6.42796L13.5572 5.89435ZM11.7615 5.38666C11.5144 5.35618 11.2645 5.34055 11.0128 5.34003C10.9437 5.34001 10.8858 5.34077 10.8265 5.34241L10.8427 5.92885C10.8964 5.92737 10.949 5.92668 11.0122 5.92669C11.2397 5.92716 11.466 5.94132 11.6897 5.96891L11.7615 5.38666ZM9.90715 5.43669C9.60244 5.49126 9.30343 5.5686 9.01211 5.66786L9.20133 6.22318C9.4647 6.13344 9.73503 6.06351 10.0106 6.01417L9.90715 5.43669ZM8.15885 6.03293C7.88523 6.1754 7.62274 6.33827 7.37357 6.52001L7.71928 6.99399C7.94477 6.82953 8.18226 6.68217 8.42978 6.55329L8.15885 6.03293ZM6.65412 7.13425C6.43559 7.35179 6.23353 7.5854 6.04981 7.83301L6.52096 8.18258C6.68726 7.95845 6.87017 7.74697 7.06801 7.55003L6.65412 7.13425ZM5.56215 8.60332C5.41699 8.87527 5.29241 9.15794 5.18961 9.44917L5.74283 9.64444C5.83577 9.38112 5.94843 9.12552 6.0797 8.87957L5.56215 8.60332ZM4.94491 10.3617C4.88855 10.6633 4.85464 10.97 4.84375 11.28L5.43005 11.3006C5.43992 11.0198 5.4706 10.7423 5.52159 10.4695L4.94491 10.3617ZM4.88161 12.2206C4.91749 12.5283 4.97631 12.8314 5.05736 13.1279L5.62326 12.9732C5.54998 12.7051 5.49679 12.431 5.46434 12.1527L4.88161 12.2206ZM5.3747 14.0141C5.50079 14.2958 5.64793 14.5675 5.81471 14.8269L6.3082 14.5097C6.15731 14.275 6.02421 14.0292 5.91018 13.7745L5.3747 14.0141ZM6.37306 15.5668C6.57667 15.7983 6.79735 16.0143 7.03312 16.213L7.41112 15.7643C7.19768 15.5845 6.99789 15.3889 6.81356 15.1793L6.37306 15.5668ZM7.77454 16.7491C8.03713 16.9108 8.31159 17.0526 8.59574 17.1731L8.82488 16.6331C8.56791 16.524 8.31967 16.3958 8.08213 16.2495L7.77454 16.7491ZM9.48979 17.4735C9.78772 17.5486 10.0919 17.6014 10.4004 17.6312L10.4568 17.0472C10.1777 17.0203 9.90258 16.9725 9.63317 16.9046L9.48979 17.4735Z" fill="white"/>
<path fill-rule="evenodd" clip-rule="evenodd" d="M11 22.5C17.0751 22.5 22 17.5751 22 11.5C22 5.42487 17.0751 0.5 11 0.5C4.92487 0.5 0 5.42487 0 11.5C0 17.5751 4.92487 22.5 11 22.5ZM11 21.62C5.41088 21.62 0.88 17.0891 0.88 11.5C0.88 5.91088 5.41088 1.38 11 1.38C16.5891 1.38 21.12 5.91088 21.12 11.5C21.12 17.0891 16.5891 21.62 11 21.62Z" fill="white"/>
<path fill-rule="evenodd" clip-rule="evenodd" d="M11.0001 19.2733C15.2932 19.2733 18.7735 15.7931 18.7735 11.5C18.7735 7.20686 15.2932 3.72662 11.0001 3.72662C6.70705 3.72662 3.22681 7.20686 3.22681 11.5C3.22681 15.7931 6.70705 19.2733 11.0001 19.2733ZM11.0001 18.3933C7.19306 18.3933 4.10681 15.307 4.10681 11.5C4.10681 7.69287 7.19306 4.60662 11.0001 4.60662C14.8072 4.60662 17.8935 7.69287 17.8935 11.5C17.8935 15.307 14.8072 18.3933 11.0001 18.3933Z" fill="white"/>
</svg>
