<svg version="1.1"
	 id="svg4056" sodipodi:docname="star.svg" xmlns:inkscape="http://www.inkscape.org/namespaces/inkscape" xmlns:sodipodi="http://sodipodi.sourceforge.net/DTD/sodipodi-0.dtd" xmlns:svg="http://www.w3.org/2000/svg"
	 xmlns="http://www.w3.org/2000/svg" xmlns:xlink="http://www.w3.org/1999/xlink" x="0px" y="0px" viewBox="0 0 485.9 461.5"
	 style="enable-background:new 0 0 485.9 461.5;" xml:space="preserve">
<path id="path4544" d="M92.3,459.6c0.3-1.3,6.6-37.9,14-81.4s13.7-80,14-81.1c0.4-1.7-6.4-8.8-37.2-39C10.7,187.5-0.3,176.5,0,176.2
	c0.2-0.2,37.9-5.8,83.8-12.5s83.5-12.2,83.5-12.3C168.7,148,242.3-0.2,242.5,0c0.2,0.2,16.9,34,37.3,75.2
	c27.6,55.8,37.6,75.2,39.3,76c1.3,0.6,39.3,6.4,84.6,12.9l82.3,11.9l-4.8,4.6c-87.3,84.6-117.2,114.3-116.8,116.3
	c1.2,4.8,28.3,164.2,28,164.5c-0.2,0.2-33.8-17.3-74.6-38.8c-40.9-21.5-74.8-39.1-75.4-39.1c-0.6,0-34.1,17.4-74.5,38.6
	s-74,38.8-74.7,39.1C92.1,461.8,91.9,461.3,92.3,459.6L92.3,459.6z M237.5,291l5.1-2.6l18.9,10c12.1,6.4,19,9.6,19.2,8.8
	c0.2-0.7-1.3-10.3-3.2-21.4l-3.5-20.1l15.5-15.2c10.2-10,15.1-15.4,14.2-15.9c-0.7-0.4-10.3-1.9-21.4-3.4l-20.1-2.8l-9.4-19
	c-5.2-10.4-9.8-19.2-10.2-19.4c-0.4-0.3-5,8.2-10.2,18.9l-9.5,19.4l-19.8,2.8c-10.9,1.5-20.6,3.1-21.6,3.5
	c-1.5,0.5,1.1,3.5,13.7,15.8l15.5,15.2l-3.5,20c-1.9,11-3.5,20.7-3.5,21.5c0,1.1,4-0.6,14.3-6C225.9,297,234.6,292.4,237.5,291
	L237.5,291z"/>
</svg>
