<svg width="40" height="40" viewBox="0 0 40 40" fill="none" xmlns="http://www.w3.org/2000/svg">
<circle opacity="0.2" cx="20" cy="20" r="19.5" stroke="#00281C"/>
<path d="M8.28747 20.4035C8.28747 20.4035 17.5753 16.6717 20.7964 15.3577C22.0313 14.8321 26.2188 13.1501 26.2188 13.1501C26.2188 13.1501 28.1516 12.4143 27.9905 14.2013C27.9367 14.9372 27.5073 17.5127 27.0778 20.2984C26.4335 24.2405 25.7356 28.5505 25.7356 28.5505C25.7356 28.5505 25.6282 29.7595 24.7156 29.9697C23.8029 30.18 22.2996 29.2339 22.0313 29.0236C21.8165 28.866 18.0047 26.5007 16.6089 25.3443C16.2331 25.029 15.8036 24.3983 16.6625 23.6624C18.5953 21.9278 20.9038 19.7728 22.2996 18.4063C22.9439 17.7755 23.5881 16.3038 20.9038 18.0908C17.0921 20.6664 13.334 23.0842 13.334 23.0842C13.334 23.0842 12.475 23.6098 10.8644 23.1367C9.25378 22.6637 7.37474 22.033 7.37474 22.033C7.37474 22.033 6.08634 21.2445 8.28747 20.4035Z" fill="#281C4B"/>
</svg>
