<svg width="40" height="40" viewBox="0 0 40 40" fill="none" xmlns="http://www.w3.org/2000/svg">
<circle class="circle" cx="20" cy="20" r="19.5" fill="white" stroke="#0194FF"/>
<path class="ico" d="M16.9753 29C24.1455 29 28.0666 22.4603 28.0666 16.7892C28.0666 16.6035 28.0631 16.4186 28.0555 16.2345C28.8185 15.6267 29.4769 14.8742 30 14.0122C29.3015 14.3541 28.5499 14.5842 27.7614 14.6879C28.5662 14.1566 29.1841 13.3161 29.4756 12.3142C28.7104 12.814 27.8732 13.1663 27.0003 13.3559C26.2889 12.5217 25.2762 12 24.1548 12C22.0021 12 20.2564 13.9219 20.2564 16.291C20.2564 16.6278 20.2907 16.9553 20.3576 17.2696C17.1177 17.0901 14.2449 15.3824 12.3222 12.7857C11.9759 13.4406 11.7938 14.1849 11.7944 14.9427C11.7944 16.4316 12.4825 17.746 13.5291 18.515C12.91 18.4942 12.3046 18.3101 11.7636 17.9783C11.7631 17.9963 11.7631 18.0138 11.7631 18.0331C11.7631 20.1115 13.1067 21.8468 14.8904 22.24C14.5554 22.3404 14.2097 22.3912 13.8625 22.391C13.6118 22.391 13.3674 22.3638 13.1299 22.3136C13.6262 24.0188 15.0652 25.2597 16.7714 25.2944C15.4372 26.4457 13.7565 27.1314 11.9298 27.1314C11.6191 27.1317 11.3086 27.1118 11 27.0719C12.7252 28.2894 14.7737 28.9997 16.9755 28.9997" fill="#0194FF"/>
</svg>
