<svg width="40" height="40" viewBox="0 0 40 40" fill="none" xmlns="http://www.w3.org/2000/svg">
<circle class="circle" opacity="0.2" cx="20" cy="20" r="19.5" stroke="#00281C"/>
<path class="ico" d="M30.4474 14.8724C30.6162 14.3592 30.4474 14 29.6596 14H27.0335C26.3582 14 26.0581 14.325 25.8892 14.6842C25.8892 14.6842 24.5574 17.6605 22.6629 19.5763C22.0439 20.1408 21.7813 20.3118 21.4436 20.3118C21.2748 20.3118 21.0309 20.1408 21.0309 19.6276V14.8724C21.0309 14.2566 20.8434 14 20.2806 14H16.1539C15.7412 14 15.4786 14.2908 15.4786 14.5474C15.4786 15.1289 16.4165 15.2658 16.529 16.8737V20.3974C16.529 21.1671 16.379 21.3039 16.0413 21.3039C15.1597 21.3039 12.9838 18.3276 11.7082 14.9066C11.4456 14.2737 11.2018 14 10.5265 14H7.90038C7.15006 14 7 14.325 7 14.6842C7 15.3171 7.88162 18.4645 11.1455 22.6211C13.3214 25.4605 16.379 27 19.1551 27C20.8246 27 21.0309 26.6579 21.0309 26.0763V23.9211C21.0309 23.2368 21.181 23.1 21.725 23.1C22.1189 23.1 22.7754 23.2711 24.3323 24.6395C26.1143 26.2645 26.4145 27 27.4086 27H30.0347C30.7851 27 31.1602 26.6579 30.9351 25.9908C30.6913 25.3237 29.8472 24.3487 28.7217 23.1855C28.1027 22.5184 27.1835 21.8171 26.9209 21.4579C26.527 20.9961 26.6396 20.7908 26.9209 20.3974C26.9209 20.3803 30.1285 16.275 30.4474 14.8724Z" fill="#281C4B"/>
</svg>
