<svg version="1.1"
	 xmlns:svg="http://www.w3.org/2000/svg"
	 xmlns="http://www.w3.org/2000/svg" xmlns:xlink="http://www.w3.org/1999/xlink" x="0px" y="0px" viewBox="0 0 512 549"
	 style="enable-background:new 0 0 512 549;" xml:space="preserve">
<path id="path3943" d="M35.5,534.7c-8.7-3.4-17-11.2-20.7-19.4c-3-6.8-3-17.9,0.1-24.9c2.8-6.3,9.9-13.4,16.9-16.9
	c4.2-2.1,5.3-3.1,5.3-5.1c0-9.3,10.3-129.2,12-138.6c6.3-36.6,18.2-67.3,37.8-97.3c20.7-31.6,51.6-62.8,88.6-89.4l11.7-8.4l45.9,1.2
	c49.9,1.3,49.8,1.3,54.8-4.1c6-6.5,3.8-17.1-4.5-22c-2.2-1.3-16.2-3.6-50.9-8.3c-26.3-3.6-48.8-6.9-49.9-7.4
	c-1.8-0.7-2.8-4.8-8.3-34.7c-3.4-18.6-6.2-34.4-6.2-35.1c0-1,5.5-1.3,23.9-1.3h23.9l9.1-11.5L234,0h55.3h55.3l-10.3,62.3
	c-5.7,34.2-10.6,64.5-10.9,67.3l-0.6,5.1l12.9,9.4c33.1,24.3,58,48.1,78.4,75.2c26.7,35.4,43.7,76.6,50.3,121.8
	c1.3,9.1,10.6,120.6,10.6,127.4c0,2,0.9,2.9,4.5,4.5c6.4,2.8,14.8,11.2,17.6,17.4c3.1,7,3.2,18.1,0.1,24.9
	c-3.1,6.9-10.7,14.6-17.8,17.9l-6,2.9L256,535.9C91.8,535.9,37.8,535.6,35.5,534.7z M232.7,429.3l23.2-11.8l23.6,11.8
	c26.4,13.1,28.7,13.8,33.6,8.8c1.9-1.9,2.9-4,2.9-5.8c0-1.6-2-14-4.5-27.7l-4.5-24.9l17.9-18.3c20-20.4,21.7-23.1,18.6-29.7
	c-1-2.1-3-4.2-4.9-5c-1.7-0.8-14-2.9-27.3-4.7l-24.1-3.3l-11.4-23c-6.3-12.7-12.5-23.8-13.8-24.9c-2.9-2.3-8.9-2.5-12-0.3
	c-1.4,1-6.8,10.7-13.8,24.9l-11.4,23.2l-24.2,3.3c-13.3,1.8-25.6,3.9-27.4,4.7c-4.1,1.9-6.6,7.1-5.8,11.8c0.5,2.9,4.2,7.1,19,22.4
	l18.4,18.8l-4.5,24.9c-2.5,14.1-4.2,26.1-3.9,27.6c0.9,4.2,6,8.7,9.8,8.8C208.4,441,217.4,437,232.7,429.3L232.7,429.3z"/>
</svg>
