<svg version="1.1"
	 id="svg2920" sodipodi:docname="cherry.svg" xmlns:inkscape="http://www.inkscape.org/namespaces/inkscape" xmlns:sodipodi="http://sodipodi.sourceforge.net/DTD/sodipodi-0.dtd" xmlns:svg="http://www.w3.org/2000/svg"
	 xmlns="http://www.w3.org/2000/svg" xmlns:xlink="http://www.w3.org/1999/xlink" x="0px" y="0px" viewBox="0 0 489.7 511.8"
	 style="enable-background:new 0 0 489.7 511.8;" xml:space="preserve">
<path id="path3064" d="M150,510.9c-30-3.8-57.6-17.8-80.2-40.3c-20.6-20.6-33-44.6-38-73.6c-2-11.4-1.4-37.4,1-48.3
	c7.1-31.2,25.6-59.7,51.5-79.3c9-6.8,28.1-16.8,39.1-20.4c8.3-2.8,22.5-5.9,26.8-6c2.4,0,3.3-0.5,3.3-1.8c0-5.2,3.3-28.6,5.5-39
	c4.2-19.7,12.1-42.6,20.6-59.4c1.6-3.2,2.9-6,2.9-6.2s-3.9,1.1-8.8,3.1c-37.7,15.2-78.6,13.2-116.3-5.7
	c-17.7-8.9-39.5-25.2-53.9-40.3L0,90l3.4-3.6c20.9-22,49.8-40.9,75.6-49.3c47-15.3,97-4.8,139.7,29.5l10.1,8.1l6.9-6.1
	c31.4-28.1,67.9-48.2,107.2-59C368.6,2.5,390.2,0,425.8,0l23.9,0l-19,19.3c-19,19.2-27.5,29.3-35.2,42c-10.1,16.5-18.3,36-22.7,54
	c-4.8,19.9-5.5,29.1-5.5,80.1v47.2l7.8,1.1c35.8,5.3,71.2,27.9,92.2,58.8c14.9,21.9,22.4,46.5,22.3,73.5c0,27.7-7.3,51.7-22.8,75
	c-6.6,10-27,30.4-36.9,37c-15.1,10.1-34.6,18.1-52.4,21.7c-12.2,2.4-39.5,2.4-51.2,0c-29.1-6.1-51.9-18.4-72.6-39.1
	c-20.6-20.6-33-44.6-38-73.6c-2-11.4-1.4-37.4,1-48.3c7.1-31.2,25.6-59.7,51.5-79.3c9-6.8,28.1-16.8,39.1-20.4
	c7.8-2.6,22.5-5.9,26.3-6l2.8,0l0-42.3c0-47,1-64.3,4.5-82.8c5.4-27.6,16.6-54.8,32.1-77.9c2.4-3.6,4-6.7,3.4-6.9
	c-1.5-0.5-16.3,2.7-27.6,5.9C283.2,57.9,228.6,106,201.7,168.7c-8.6,20-15.3,45.8-16.9,65.1c-0.7,7.9-0.6,8.1,1.7,8.6
	c1.3,0.3,6,1.3,10.4,2.2c9.5,2,22.8,6.6,30.8,10.6l5.8,2.9l-8.1,9.2c-22.6,25.8-36.2,55.1-40.5,87.4c-6.3,47.4,8.3,94.3,41.1,131.7
	l7.5,8.5l-6.2,3.1c-9.7,4.9-28.4,10.7-40.1,12.4C175.8,512.1,161.1,512.3,150,510.9L150,510.9z M122.7,369.8c0.8-8,5.2-17,11.8-24.2
	c6.3-6.9,16.7-12.3,26.8-13.9l7.1-1.1v-14.9v-14.9l-7.2,0.7c-36.8,3.4-66.1,32-69.4,67.7l-0.6,6.9h15.5h15.5L122.7,369.8z
	 M306.7,369.8c0.8-8,5.2-17,11.8-24.2c6.3-6.9,16.7-12.3,26.8-13.9l7.1-1.1v-14.9v-14.9l-7.2,0.7c-36.8,3.4-66.1,32-69.4,67.7
	l-0.6,6.9h15.5h15.5L306.7,369.8z"/>
</svg>
