<svg version="1.1" xmlns:svg="http://www.w3.org/2000/svg"
	 xmlns="http://www.w3.org/2000/svg" xmlns:xlink="http://www.w3.org/1999/xlink" x="0px" y="0px" viewBox="0 0 487 486.9"
	 style="enable-background:new 0 0 487 486.9;" xml:space="preserve">
<path d="M223.1,486.4c-56.2-5.3-106.8-29.3-147.6-69.9c-45-44.8-71.4-104.9-75.3-171c-0.5-8.2-0.4-8.1,1.9,5.5
	c6.5,37.4,19.8,71,40.3,101.5c60.8,90.6,167.3,131.5,261.6,100.5c6.1-2,16.9-6.5,24-9.9c53.4-26,91.7-73.5,108.1-134
	c8.4-31,9.7-71.2,3.3-102.3c-16.7-81.8-83-146.5-162.7-158.7c-14.5-2.2-39-2-53.7,0.5c-51.4,8.8-94.6,41.4-117.5,88.5
	c-13.6,28-19.9,61.7-17.2,92.3c2.6,29.7,10,51.4,25.8,75c34,51.1,94,76.3,148.6,62.4c45.5-11.6,78.8-47.5,89.5-96.4
	c1.4-6.3,1.8-12.7,1.8-27.3c0-16.5-0.3-20.2-2.3-27.9c-4.5-17.6-14.3-34.7-27.1-47.6c-12.5-12.5-28.2-21.7-44.6-26
	c-10.8-2.9-30.8-3.1-41-0.5c-35.4,9.2-59.5,39-62.1,77c-0.9,12.3,0.8,22.4,5.1,31.2c8.7,17.9,24.8,28.4,43.5,28.4
	c19.8,0,35.9-11.3,40.6-28.6c1.5-5.6,1.6-7.5,0.6-12.7c-2.3-12.4-10.2-18.8-23.2-18.8c-8.8,0-14.7,2.8-19.8,9.4l-2.2,2.9v-4.1
	c0-16,9-30.7,22.4-36.8c8.1-3.7,20.8-4.5,30.2-1.9c12.7,3.4,24.8,14,31,27c9.4,19.9,5.7,50.9-8.8,73.3c-20.2,31.1-57.6,44.1-94,32.6
	c-32.2-10.1-57.9-37.9-67-72.2c-2.6-10-3.6-32.4-1.9-45.6c5.4-42.5,30.7-78.9,67.8-97.5c27.8-13.9,63.4-15.8,95.4-5.1
	c22.9,7.6,38.4,17.4,56.9,36c27.5,27.5,41.8,58.4,45,97.1c4.1,49.8-12.8,99.3-45.7,133.9c-26.5,27.9-58.9,44.3-96.7,49.1
	c-13.8,1.7-41.1,0.7-54-2c-36.8-7.8-67.9-24.6-95.5-51.4c-19.3-18.8-30.7-34.4-42.2-57.9c-14.6-29.8-20.9-57.7-20.9-92.7
	c0-35.4,6.9-66.5,21.5-96.8C95,52.7,150,12,217.6,1.8c15.6-2.4,45.3-2.3,61,0.1c50.8,7.8,96.9,31.4,134.5,69.1
	c37.6,37.6,62.3,85.2,71.6,138.2c7.3,41.4-3,97.7-26.2,143c-36.8,71.9-105,121.7-182,132.8C262.9,486.8,236.1,487.6,223.1,486.4
	L223.1,486.4z"/>
</svg>
