<?xml version="1.0" standalone="no"?>
<!DOCTYPE svg PUBLIC "-//W3C//DTD SVG 20010904//EN"
 "http://www.w3.org/TR/2001/REC-SVG-20010904/DTD/svg10.dtd">
<svg version="1.0" xmlns="http://www.w3.org/2000/svg"
 width="752.000000pt" height="752.000000pt" viewBox="0 0 752.000000 752.000000"
 preserveAspectRatio="xMidYMid meet">
<metadata>
Created by potrace 1.11, written by Peter Selinger 2001-2013
</metadata>
<g transform="translate(0.000000,752.000000) scale(0.100000,-0.100000)"
fill="#000000" stroke="none">
<path d="M4178 7515 c-2 -3 -51 -7 -108 -10 -58 -3 -118 -8 -135 -10 -16 -2
-57 -6 -90 -9 -33 -3 -78 -8 -100 -11 -22 -3 -56 -8 -75 -10 -19 -2 -48 -7
-65 -10 -34 -6 -88 -15 -125 -21 -74 -13 -149 -29 -275 -61 -77 -19 -147 -36
-156 -38 -64 -13 -375 -126 -484 -176 -27 -12 -52 -23 -55 -24 -3 0 -15 -6
-27 -13 -13 -7 -23 -9 -23 -5 0 4 -4 3 -8 -3 -4 -6 -47 -31 -97 -56 -100 -50
-308 -175 -313 -189 -2 -5 -8 -9 -14 -9 -11 0 -205 -145 -283 -212 -68 -58
-291 -282 -337 -338 -117 -143 -223 -285 -273 -368 -5 -9 -24 -39 -41 -67 -49
-80 -84 -142 -126 -228 -53 -108 -101 -210 -104 -222 -1 -5 -18 -47 -38 -92
-19 -46 -33 -83 -29 -83 3 0 1 -6 -4 -12 -8 -10 -62 -160 -69 -190 -1 -5 -2
-9 -4 -10 -1 -2 -3 -10 -5 -18 -1 -8 -13 -48 -25 -89 -12 -41 -23 -81 -25 -90
-3 -9 -11 -43 -19 -77 -8 -34 -17 -72 -20 -85 -2 -13 -11 -53 -19 -89 -9 -36
-18 -83 -21 -105 -4 -23 -8 -50 -10 -62 -20 -99 -36 -214 -50 -353 -4 -30 -8
-71 -11 -90 -3 -19 -7 -71 -10 -115 -4 -44 -9 -107 -12 -140 -3 -33 -7 -680
-9 -1437 l-4 -1378 1310 0 1310 0 0 -62 c0 -35 2 -227 3 -428 l2 -365 487 0
c317 0 489 4 491 10 1 6 2 198 2 428 l-1 417 360 1 c199 1 375 3 391 4 139 13
181 19 345 51 37 7 143 36 170 47 8 3 40 13 70 22 30 9 69 22 85 30 17 7 75
32 130 56 55 23 105 46 111 51 6 4 37 22 70 39 32 18 92 54 133 80 41 27 78
49 82 49 5 0 9 4 9 9 0 5 15 19 33 30 18 11 42 28 54 38 11 10 45 38 74 63 93
77 246 236 327 339 7 9 40 54 72 101 33 47 64 90 70 97 5 7 10 15 10 18 0 3
12 24 27 48 33 52 113 212 146 292 46 113 109 314 124 394 2 14 9 46 14 70 5
24 12 65 15 90 3 25 8 59 10 76 11 75 16 256 18 570 l1 340 -492 0 -493 1 -1
-366 c-1 -201 -3 -374 -4 -385 -16 -128 -22 -162 -40 -235 -15 -59 -28 -99
-36 -114 -6 -10 -12 -26 -14 -36 -6 -33 -86 -190 -134 -263 -64 -96 -171 -218
-251 -285 -36 -30 -75 -63 -88 -73 -12 -11 -24 -19 -26 -19 -3 0 -31 -17 -63
-38 -88 -58 -267 -139 -343 -157 -8 -1 -33 -8 -55 -14 -22 -6 -58 -13 -80 -17
-22 -3 -60 -9 -85 -14 -24 -5 -202 -9 -396 -9 l-351 -1 3 502 c2 277 5 529 8
560 5 72 16 175 21 208 2 14 7 45 10 70 9 64 15 101 20 130 3 14 7 34 9 45 2
11 12 52 21 90 9 39 18 77 20 85 5 20 54 171 62 190 3 8 7 17 7 20 4 14 36 85
80 170 123 242 328 456 548 572 35 18 66 38 70 43 4 6 8 6 8 1 0 -5 6 -4 13 2
46 39 347 131 507 157 126 20 149 23 330 41 30 3 313 7 628 9 315 2 575 5 577
7 2 2 5 222 6 488 l1 485 -579 -1 c-318 0 -607 -4 -643 -7 -36 -4 -95 -9 -132
-12 -37 -3 -98 -9 -135 -14 -37 -6 -90 -13 -118 -16 -54 -7 -161 -27 -265 -50
-8 -2 -15 -4 -15 -5 0 -1 -12 -3 -27 -5 -16 -2 -38 -7 -50 -11 -13 -5 -25 -9
-28 -9 -46 -11 -215 -62 -240 -72 -8 -3 -17 -7 -20 -8 -3 -1 -12 -4 -20 -7
-44 -17 -56 -21 -66 -23 -14 -4 -120 -52 -166 -76 -21 -11 -38 -17 -38 -14 0
4 -12 -3 -26 -14 -15 -12 -31 -21 -36 -21 -11 0 -208 -119 -226 -137 -7 -7
-17 -13 -21 -13 -4 0 -16 -8 -27 -17 -10 -10 -40 -34 -67 -53 -104 -76 -255
-225 -353 -346 -77 -96 -97 -124 -123 -168 -14 -23 -27 -43 -31 -46 -10 -8
-64 -105 -61 -109 1 -2 -1 -7 -6 -10 -14 -10 -88 -158 -128 -256 -20 -49 -40
-99 -45 -110 -27 -57 -110 -342 -125 -425 -3 -18 -8 -37 -10 -40 -3 -4 -7 -25
-10 -46 -4 -22 -8 -46 -10 -54 -2 -8 -7 -31 -10 -50 -3 -19 -10 -60 -15 -90
-8 -49 -14 -92 -25 -195 -4 -31 -13 -132 -21 -220 -4 -45 -15 -814 -14 -1037
l0 -88 -818 0 -818 0 1 843 c1 463 5 871 8 907 4 36 9 97 12 135 3 39 7 88 10
110 3 22 8 65 11 95 2 30 7 66 9 80 2 14 7 48 10 75 4 28 20 115 36 195 37
187 34 172 58 265 23 86 25 92 34 115 3 8 17 51 31 95 13 44 30 94 37 110 7
17 13 35 15 40 4 17 70 167 101 230 43 86 139 254 153 265 3 3 17 23 30 45 13
22 26 42 29 45 4 3 26 32 51 65 59 78 279 298 355 355 33 25 62 47 65 50 36
39 339 209 460 259 30 12 64 26 75 31 88 41 418 137 532 155 12 2 34 6 50 9
15 4 42 8 58 11 17 2 39 6 50 8 11 3 45 8 75 12 30 3 66 8 80 10 14 2 59 7
100 11 41 3 93 9 115 11 22 3 685 7 1474 9 789 2 1436 6 1439 8 4 5 4 44 3
634 l-1 343 -1424 -1 c-783 -1 -1426 -3 -1428 -5z"/>
</g>
</svg>
